<?xml version="1.0" encoding="UTF-8"?>
<svg version="1.1" xmlns="http://www.w3.org/2000/svg" width="500" height="500">
<path d="M0 0 C0.76376953 -0.01224609 1.52753906 -0.02449219 2.31445312 -0.03710938 C9.23835851 -0.05518746 9.23835851 -0.05518746 12.5625 2.1875 C12.5625 3.5075 12.5625 4.8275 12.5625 6.1875 C13.635 6.166875 14.7075 6.14625 15.8125 6.125 C18.71040424 6.1732984 20.84862141 6.31905885 23.5625 7.1875 C23.5625 9.1675 23.5625 11.1475 23.5625 13.1875 C24.5525 12.8575 25.5425 12.5275 26.5625 12.1875 C29.26373106 12.34761121 31.88125231 12.79190608 34.5625 13.1875 C34.5625 15.1675 34.5625 17.1475 34.5625 19.1875 C38.5225 19.1875 42.4825 19.1875 46.5625 19.1875 C46.5625 20.8375 46.5625 22.4875 46.5625 24.1875 C54.1525 24.1875 61.7425 24.1875 69.5625 24.1875 C69.5625 25.8375 69.5625 27.4875 69.5625 29.1875 C75.1725 29.5175 80.7825 29.8475 86.5625 30.1875 C86.5625 32.1675 86.5625 34.1475 86.5625 36.1875 C90.1925 36.1875 93.8225 36.1875 97.5625 36.1875 C97.5625 37.8375 97.5625 39.4875 97.5625 41.1875 C101.1925 41.1875 104.8225 41.1875 108.5625 41.1875 C108.8925 42.8375 109.2225 44.4875 109.5625 46.1875 C111.2125 46.5175 112.8625 46.8475 114.5625 47.1875 C114.5625 49.1675 114.5625 51.1475 114.5625 53.1875 C116.5425 53.1875 118.5225 53.1875 120.5625 53.1875 C120.5625 54.8375 120.5625 56.4875 120.5625 58.1875 C121.366875 58.166875 122.17125 58.14625 123 58.125 C125.5625 58.1875 125.5625 58.1875 126.5625 59.1875 C126.6875 61.6875 126.6875 61.6875 126.5625 64.1875 C125.5625 65.1875 125.5625 65.1875 123.05859375 65.28515625 C122.04925781 65.27355469 121.03992188 65.26195312 120 65.25 C118.48212891 65.23646484 118.48212891 65.23646484 116.93359375 65.22265625 C116.15113281 65.21105469 115.36867188 65.19945312 114.5625 65.1875 C114.748125 65.991875 114.93375 66.79625 115.125 67.625 C115.3415625 68.8934375 115.3415625 68.8934375 115.5625 70.1875 C114.5625 71.1875 114.5625 71.1875 111.87866211 71.30102539 C110.71085205 71.29578857 109.54304199 71.29055176 108.33984375 71.28515625 C107.07978516 71.28193359 105.81972656 71.27871094 104.52148438 71.27539062 C103.18098891 71.26703403 101.84049412 71.25856907 100.5 71.25 C99.15560058 71.2449866 97.8111994 71.24042342 96.46679688 71.23632812 C93.16532059 71.22449488 89.86393197 71.20800971 86.5625 71.1875 C86.5625 72.8375 86.5625 74.4875 86.5625 76.1875 C95.8025 76.1875 105.0425 76.1875 114.5625 76.1875 C114.5625 78.1675 114.5625 80.1475 114.5625 82.1875 C112.9125 82.1875 111.2625 82.1875 109.5625 82.1875 C109.5934375 83.3940625 109.5934375 83.3940625 109.625 84.625 C109.5625 87.1875 109.5625 87.1875 108.5625 88.1875 C106.56291636 88.22830783 104.56204746 88.23004356 102.5625 88.1875 C102.5625 86.2075 102.5625 84.2275 102.5625 82.1875 C100.9125 82.1875 99.2625 82.1875 97.5625 82.1875 C97.5934375 83.3940625 97.5934375 83.3940625 97.625 84.625 C97.5625 87.1875 97.5625 87.1875 96.5625 88.1875 C94.0625 88.3125 94.0625 88.3125 91.5625 88.1875 C90.5625 87.1875 90.5625 87.1875 90.5 84.625 C90.5309375 83.4184375 90.5309375 83.4184375 90.5625 82.1875 C89.2425 82.1875 87.9225 82.1875 86.5625 82.1875 C86.5934375 83.3940625 86.5934375 83.3940625 86.625 84.625 C86.5625 87.1875 86.5625 87.1875 85.5625 88.1875 C83.0625 88.3125 83.0625 88.3125 80.5625 88.1875 C79.5625 87.1875 79.5625 87.1875 79.46484375 84.68359375 C79.48224609 83.16958984 79.48224609 83.16958984 79.5 81.625 C79.50902344 80.61308594 79.51804687 79.60117188 79.52734375 78.55859375 C79.54474609 77.38490234 79.54474609 77.38490234 79.5625 76.1875 C77.9125 76.1875 76.2625 76.1875 74.5625 76.1875 C74.5625 78.1675 74.5625 80.1475 74.5625 82.1875 C72.5825 82.1875 70.6025 82.1875 68.5625 82.1875 C68.5625 78.5575 68.5625 74.9275 68.5625 71.1875 C66.9125 71.1875 65.2625 71.1875 63.5625 71.1875 C63.5625 72.8375 63.5625 74.4875 63.5625 76.1875 C61.2525 76.1875 58.9425 76.1875 56.5625 76.1875 C56.5625 72.2275 56.5625 68.2675 56.5625 64.1875 C62.1725 64.1875 67.7825 64.1875 73.5625 64.1875 C73.5625 62.5375 73.5625 60.8875 73.5625 59.1875 C63.1675 59.6825 63.1675 59.6825 52.5625 60.1875 C52.2325 61.8375 51.9025 63.4875 51.5625 65.1875 C49.9125 65.1875 48.2625 65.1875 46.5625 65.1875 C46.5934375 66.3940625 46.5934375 66.3940625 46.625 67.625 C46.5625 70.1875 46.5625 70.1875 45.5625 71.1875 C43.89632885 71.22813832 42.22861905 71.230221 40.5625 71.1875 C40.748125 71.703125 40.93375 72.21875 41.125 72.75 C41.71669517 76.04658739 41.129767 78.90995735 40.5625 82.1875 C38.5825 82.1875 36.6025 82.1875 34.5625 82.1875 C34.2325 80.5375 33.9025 78.8875 33.5625 77.1875 C30.5925 76.6925 30.5925 76.6925 27.5625 76.1875 C27.8925 74.5375 28.2225 72.8875 28.5625 71.1875 C26.9125 71.1875 25.2625 71.1875 23.5625 71.1875 C23.5625 72.8375 23.5625 74.4875 23.5625 76.1875 C21.2525 76.1875 18.9425 76.1875 16.5625 76.1875 C16.5625 72.5575 16.5625 68.9275 16.5625 65.1875 C15.5725 65.8475 14.5825 66.5075 13.5625 67.1875 C13.01361939 70.2371813 13.01361939 70.2371813 12.9375 73.6875 C12.6429878 80.02652439 12.6429878 80.02652439 11.5625 82.1875 C9.5825 82.1875 7.6025 82.1875 5.5625 82.1875 C5.2325 74.9275 4.9025 67.6675 4.5625 60.1875 C3.5725 60.5175 2.5825 60.8475 1.5625 61.1875 C1.2325 66.1375 0.9025 71.0875 0.5625 76.1875 C-2.4075 76.6825 -2.4075 76.6825 -5.4375 77.1875 C-6.6638757 74.73474859 -6.55165314 73.1369219 -6.53515625 70.3984375 C-6.53032227 68.98691406 -6.53032227 68.98691406 -6.52539062 67.546875 C-6.51282227 66.06960937 -6.51282227 66.06960937 -6.5 64.5625 C-6.49548828 63.56992188 -6.49097656 62.57734375 -6.48632812 61.5546875 C-6.47452145 59.0988984 -6.458054 56.64322896 -6.4375 54.1875 C-8.4175 53.6925 -8.4175 53.6925 -10.4375 53.1875 C-10.4375 60.7775 -10.4375 68.3675 -10.4375 76.1875 C-12.4175 76.1875 -14.3975 76.1875 -16.4375 76.1875 C-16.4375 78.1675 -16.4375 80.1475 -16.4375 82.1875 C-18.0875 82.5175 -19.7375 82.8475 -21.4375 83.1875 C-21.7675 86.4875 -22.0975 89.7875 -22.4375 93.1875 C-24.0875 93.1875 -25.7375 93.1875 -27.4375 93.1875 C-27.416875 93.991875 -27.39625 94.79625 -27.375 95.625 C-27.4375 98.1875 -27.4375 98.1875 -28.4375 99.1875 C-30.10367115 99.22813832 -31.77138095 99.230221 -33.4375 99.1875 C-33.4375 101.1675 -33.4375 103.1475 -33.4375 105.1875 C-37.3975 105.1875 -41.3575 105.1875 -45.4375 105.1875 C-45.4375 98.9175 -45.4375 92.6475 -45.4375 86.1875 C-43.7875 86.5175 -42.1375 86.8475 -40.4375 87.1875 C-40.4375 85.2075 -40.4375 83.2275 -40.4375 81.1875 C-38.4575 81.1875 -36.4775 81.1875 -34.4375 81.1875 C-34.4375 77.8875 -34.4375 74.5875 -34.4375 71.1875 C-36.0875 71.1875 -37.7375 71.1875 -39.4375 71.1875 C-39.4375 72.8375 -39.4375 74.4875 -39.4375 76.1875 C-41.0875 76.5175 -42.7375 76.8475 -44.4375 77.1875 C-44.7675 78.8375 -45.0975 80.4875 -45.4375 82.1875 C-47.0875 82.1875 -48.7375 82.1875 -50.4375 82.1875 C-50.4375 85.8175 -50.4375 89.4475 -50.4375 93.1875 C-54.3975 93.1875 -58.3575 93.1875 -62.4375 93.1875 C-62.7675 91.5375 -63.0975 89.8875 -63.4375 88.1875 C-68.7175 88.1875 -73.9975 88.1875 -79.4375 88.1875 C-79.4375 89.8375 -79.4375 91.4875 -79.4375 93.1875 C-83.0675 93.1875 -86.6975 93.1875 -90.4375 93.1875 C-90.4375 97.1475 -90.4375 101.1075 -90.4375 105.1875 C-94.0675 105.5175 -97.6975 105.8475 -101.4375 106.1875 C-101.7675 107.8375 -102.0975 109.4875 -102.4375 111.1875 C-106.0675 111.1875 -109.6975 111.1875 -113.4375 111.1875 C-113.4375 112.8375 -113.4375 114.4875 -113.4375 116.1875 C-115.4175 116.1875 -117.3975 116.1875 -119.4375 116.1875 C-119.4375 118.1675 -119.4375 120.1475 -119.4375 122.1875 C-121.4175 122.1875 -123.3975 122.1875 -125.4375 122.1875 C-125.4375 120.2075 -125.4375 118.2275 -125.4375 116.1875 C-123.7875 116.1875 -122.1375 116.1875 -120.4375 116.1875 C-120.4375 114.2075 -120.4375 112.2275 -120.4375 110.1875 C-117.4375 109.1875 -117.4375 109.1875 -114.4375 110.1875 C-114.4375 108.2075 -114.4375 106.2275 -114.4375 104.1875 C-112.4575 104.1875 -110.4775 104.1875 -108.4375 104.1875 C-108.7675 98.9075 -109.0975 93.6275 -109.4375 88.1875 C-111.0875 87.8575 -112.7375 87.5275 -114.4375 87.1875 C-114.4375 85.5375 -114.4375 83.8875 -114.4375 82.1875 C-116.4175 82.1875 -118.3975 82.1875 -120.4375 82.1875 C-120.4375 80.5375 -120.4375 78.8875 -120.4375 77.1875 C-122.0875 77.1875 -123.7375 77.1875 -125.4375 77.1875 C-126.68296405 74.69657189 -126.2142578 73.77669267 -125.4375 71.1875 C-127.4175 71.1875 -129.3975 71.1875 -131.4375 71.1875 C-131.4375 68.8775 -131.4375 66.5675 -131.4375 64.1875 C-127.4775 64.1875 -123.5175 64.1875 -119.4375 64.1875 C-119.4375 66.1675 -119.4375 68.1475 -119.4375 70.1875 C-115.4775 70.1875 -111.5175 70.1875 -107.4375 70.1875 C-107.4375 72.1675 -107.4375 74.1475 -107.4375 76.1875 C-105.7875 76.1875 -104.1375 76.1875 -102.4375 76.1875 C-102.4375 77.8375 -102.4375 79.4875 -102.4375 81.1875 C-98.8075 81.1875 -95.1775 81.1875 -91.4375 81.1875 C-91.4375 79.5375 -91.4375 77.8875 -91.4375 76.1875 C-87.8075 76.1875 -84.1775 76.1875 -80.4375 76.1875 C-80.4375 72.2275 -80.4375 68.2675 -80.4375 64.1875 C-72.0225 63.6925 -72.0225 63.6925 -63.4375 63.1875 C-63.1075 61.5375 -62.7775 59.8875 -62.4375 58.1875 C-58.8075 58.1875 -55.1775 58.1875 -51.4375 58.1875 C-51.7675 56.5375 -52.0975 54.8875 -52.4375 53.1875 C-50.4575 52.8575 -48.4775 52.5275 -46.4375 52.1875 C-46.1075 50.2075 -45.7775 48.2275 -45.4375 46.1875 C-40.1575 46.1875 -34.8775 46.1875 -29.4375 46.1875 C-29.1075 44.5375 -28.7775 42.8875 -28.4375 41.1875 C-24.8075 41.1875 -21.1775 41.1875 -17.4375 41.1875 C-17.4375 39.5375 -17.4375 37.8875 -17.4375 36.1875 C-13.4775 36.1875 -9.5175 36.1875 -5.4375 36.1875 C-5.7675 34.5375 -6.0975 32.8875 -6.4375 31.1875 C-5.7775 30.5275 -5.1175 29.8675 -4.4375 29.1875 C-1.68160223 29.20497927 0.95036676 29.32613271 3.6875 29.5625 C4.81865234 29.64757812 4.81865234 29.64757812 5.97265625 29.734375 C7.83668096 29.8759465 9.69971137 30.03049959 11.5625 30.1875 C11.5625 28.5375 11.5625 26.8875 11.5625 25.1875 C7.6025 25.1875 3.6425 25.1875 -0.4375 25.1875 C-0.4375 21.5575 -0.4375 17.9275 -0.4375 14.1875 C-2.0875 14.1875 -3.7375 14.1875 -5.4375 14.1875 C-6.4375 11.1875 -6.4375 11.1875 -5.4375 8.1875 C-7.4175 8.1875 -9.3975 8.1875 -11.4375 8.1875 C-11.4375 5.8775 -11.4375 3.5675 -11.4375 1.1875 C-7.60964707 -0.08845098 -3.9878343 0.00334831 0 0 Z M12.5625 19.1875 C12.2325 20.5075 11.9025 21.8275 11.5625 23.1875 C14.0375 23.6825 14.0375 23.6825 16.5625 24.1875 C16.5625 22.5375 16.5625 20.8875 16.5625 19.1875 C15.2425 19.1875 13.9225 19.1875 12.5625 19.1875 Z M46.5625 31.1875 C46.5625 32.8375 46.5625 34.4875 46.5625 36.1875 C48.2125 36.1875 49.8625 36.1875 51.5625 36.1875 C51.5625 34.5375 51.5625 32.8875 51.5625 31.1875 C49.9125 31.1875 48.2625 31.1875 46.5625 31.1875 Z M51.5625 36.1875 C51.5625 39.8175 51.5625 43.4475 51.5625 47.1875 C53.2125 47.1875 54.8625 47.1875 56.5625 47.1875 C56.8925 45.5375 57.2225 43.8875 57.5625 42.1875 C63.0075 41.6925 63.0075 41.6925 68.5625 41.1875 C68.5625 39.5375 68.5625 37.8875 68.5625 36.1875 C62.9525 36.1875 57.3425 36.1875 51.5625 36.1875 Z M68.5625 42.1875 C68.8925 43.8375 69.2225 45.4875 69.5625 47.1875 C70.8825 47.1875 72.2025 47.1875 73.5625 47.1875 C73.5625 45.5375 73.5625 43.8875 73.5625 42.1875 C71.9125 42.1875 70.2625 42.1875 68.5625 42.1875 Z M-5.4375 48.1875 C-5.1075 49.8375 -4.7775 51.4875 -4.4375 53.1875 C-3.1175 52.8575 -1.7975 52.5275 -0.4375 52.1875 C-0.4375 50.8675 -0.4375 49.5475 -0.4375 48.1875 C-2.0875 48.1875 -3.7375 48.1875 -5.4375 48.1875 Z M57.5625 48.1875 C57.5625 49.8375 57.5625 51.4875 57.5625 53.1875 C60.8625 53.1875 64.1625 53.1875 67.5625 53.1875 C67.8925 51.5375 68.2225 49.8875 68.5625 48.1875 C64.9325 48.1875 61.3025 48.1875 57.5625 48.1875 Z M6.5625 53.1875 C6.5625 54.8375 6.5625 56.4875 6.5625 58.1875 C7.8825 58.1875 9.2025 58.1875 10.5625 58.1875 C10.8925 56.8675 11.2225 55.5475 11.5625 54.1875 C9.9125 53.8575 8.2625 53.5275 6.5625 53.1875 Z M18.5625 59.1875 C18.2325 60.5075 17.9025 61.8275 17.5625 63.1875 C20.0375 63.6825 20.0375 63.6825 22.5625 64.1875 C22.5625 62.5375 22.5625 60.8875 22.5625 59.1875 C21.2425 59.1875 19.9225 59.1875 18.5625 59.1875 Z M74.5625 65.1875 C74.5625 66.8375 74.5625 68.4875 74.5625 70.1875 C78.1925 70.1875 81.8225 70.1875 85.5625 70.1875 C85.5625 68.5375 85.5625 66.8875 85.5625 65.1875 C81.9325 65.1875 78.3025 65.1875 74.5625 65.1875 Z " fill="#C4C0BD" transform="translate(255.4375,156.8125)"/>
<path d="M0 0 C3.96 0 7.92 0 12 0 C12.99 1.98 12.99 1.98 14 4 C13.34 4.33 12.68 4.66 12 5 C12.495 5.99 12.495 5.99 13 7 C12.67 7.66 12.34 8.32 12 9 C12.66 9 13.32 9 14 9 C14 7.68 14 6.36 14 5 C14.99 4.67 15.98 4.34 17 4 C17 4.66 17 5.32 17 6 C16.34 6 15.68 6 15 6 C15.7018576 8.8509288 15.7018576 8.8509288 17 10 C18 11 18 11 18.0625 14.0625 C18.041875 15.031875 18.02125 16.00125 18 17 C17.01 16.67 16.02 16.34 15 16 C15.66 16 16.32 16 17 16 C17 14.68 17 13.36 17 12 C15.35 12 13.7 12 12 12 C12.495 14.475 12.495 14.475 13 17 C11 18 11 18 7 17 C7 24.59 7 32.18 7 40 C5.02 40 3.04 40 1 40 C1 41.98 1 43.96 1 46 C-0.65 46.33 -2.3 46.66 -4 47 C-4.495 51.95 -4.495 51.95 -5 57 C-6.65 57 -8.3 57 -10 57 C-9.979375 57.804375 -9.95875 58.60875 -9.9375 59.4375 C-10 62 -10 62 -11 63 C-12.66617115 63.04063832 -14.33388095 63.042721 -16 63 C-16 64.98 -16 66.96 -16 69 C-19.96 69 -23.92 69 -28 69 C-28 62.73 -28 56.46 -28 50 C-26.35 50.33 -24.7 50.66 -23 51 C-23 49.02 -23 47.04 -23 45 C-21.02 45 -19.04 45 -17 45 C-17 41.7 -17 38.4 -17 35 C-18.65 35 -20.3 35 -22 35 C-22 36.65 -22 38.3 -22 40 C-23.65 40.33 -25.3 40.66 -27 41 C-27.33 42.65 -27.66 44.3 -28 46 C-29.65 46 -31.3 46 -33 46 C-33 49.63 -33 53.26 -33 57 C-36.96 57 -40.92 57 -45 57 C-45.33 55.35 -45.66 53.7 -46 52 C-51.28 52 -56.56 52 -62 52 C-62 53.65 -62 55.3 -62 57 C-65.63 57 -69.26 57 -73 57 C-73 60.96 -73 64.92 -73 69 C-76.63 69.33 -80.26 69.66 -84 70 C-84.33 71.65 -84.66 73.3 -85 75 C-88.63 75 -92.26 75 -96 75 C-96 76.65 -96 78.3 -96 80 C-97.98 80 -99.96 80 -102 80 C-102 81.98 -102 83.96 -102 86 C-103.98 86 -105.96 86 -108 86 C-108 84.02 -108 82.04 -108 80 C-106.35 80 -104.7 80 -103 80 C-103 78.02 -103 76.04 -103 74 C-100 73 -100 73 -97 74 C-97 72.02 -97 70.04 -97 68 C-95.02 68 -93.04 68 -91 68 C-91.33 62.72 -91.66 57.44 -92 52 C-93.65 51.67 -95.3 51.34 -97 51 C-97 49.35 -97 47.7 -97 46 C-98.98 46 -100.96 46 -103 46 C-103 44.35 -103 42.7 -103 41 C-104.65 41 -106.3 41 -108 41 C-109.24546405 38.50907189 -108.7767578 37.58919267 -108 35 C-109.98 35 -111.96 35 -114 35 C-114 32.69 -114 30.38 -114 28 C-110.04 28 -106.08 28 -102 28 C-102 29.98 -102 31.96 -102 34 C-98.04 34 -94.08 34 -90 34 C-90 35.98 -90 37.96 -90 40 C-88.35 40 -86.7 40 -85 40 C-85 41.65 -85 43.3 -85 45 C-81.37 45 -77.74 45 -74 45 C-74 43.35 -74 41.7 -74 40 C-70.37 40 -66.74 40 -63 40 C-63 36.04 -63 32.08 -63 28 C-54.585 27.505 -54.585 27.505 -46 27 C-45.67 25.35 -45.34 23.7 -45 22 C-41.37 22 -37.74 22 -34 22 C-34.33 20.35 -34.66 18.7 -35 17 C-33.02 16.67 -31.04 16.34 -29 16 C-28.67 14.02 -28.34 12.04 -28 10 C-22.72 10 -17.44 10 -12 10 C-11.67 8.35 -11.34 6.7 -11 5 C-7.37 5 -3.74 5 0 5 C0 3.35 0 1.7 0 0 Z " fill="#C4BFBC" transform="translate(238,193)"/>
<path d="M0 0 C0.66 0 1.32 0 2 0 C2.495 2.475 2.495 2.475 3 5 C6.63 5 10.26 5 14 5 C14 6.65 14 8.3 14 10 C17.63 10 21.26 10 25 10 C25.495 12.475 25.495 12.475 26 15 C27.65 15.33 29.3 15.66 31 16 C31 17.98 31 19.96 31 22 C32.98 22 34.96 22 37 22 C37 23.65 37 25.3 37 27 C38.2065625 26.9690625 38.2065625 26.9690625 39.4375 26.9375 C42 27 42 27 43 28 C43.125 30.5 43.125 30.5 43 33 C42 34 42 34 39.49609375 34.09765625 C38.48675781 34.08605469 37.47742188 34.07445312 36.4375 34.0625 C35.42558594 34.05347656 34.41367187 34.04445312 33.37109375 34.03515625 C32.58863281 34.02355469 31.80617188 34.01195312 31 34 C31.185625 34.804375 31.37125 35.60875 31.5625 36.4375 C31.7790625 37.7059375 31.7790625 37.7059375 32 39 C31 40 31 40 28.31616211 40.11352539 C27.14835205 40.10828857 25.98054199 40.10305176 24.77734375 40.09765625 C23.51728516 40.09443359 22.25722656 40.09121094 20.95898438 40.08789062 C19.61848891 40.07953403 18.27799412 40.07106907 16.9375 40.0625 C15.59310058 40.0574866 14.2486994 40.05292342 12.90429688 40.04882812 C9.60282059 40.03699488 6.30143197 40.02050971 3 40 C3 41.65 3 43.3 3 45 C12.24 45 21.48 45 31 45 C31 46.98 31 48.96 31 51 C29.35 51 27.7 51 26 51 C26.020625 51.804375 26.04125 52.60875 26.0625 53.4375 C26 56 26 56 25 57 C23.00041636 57.04080783 20.99954746 57.04254356 19 57 C19 55.02 19 53.04 19 51 C17.35 51 15.7 51 14 51 C14.020625 51.804375 14.04125 52.60875 14.0625 53.4375 C14 56 14 56 13 57 C10.5 57.125 10.5 57.125 8 57 C7 56 7 56 6.9375 53.4375 C6.958125 52.633125 6.97875 51.82875 7 51 C5.68 51 4.36 51 3 51 C3.020625 51.804375 3.04125 52.60875 3.0625 53.4375 C3 56 3 56 2 57 C-0.5 57.125 -0.5 57.125 -3 57 C-4 56 -4 56 -4.09765625 53.49609375 C-4.08605469 52.48675781 -4.07445312 51.47742188 -4.0625 50.4375 C-4.05347656 49.42558594 -4.04445313 48.41367188 -4.03515625 47.37109375 C-4.02355469 46.58863281 -4.01195312 45.80617187 -4 45 C-5.65 45 -7.3 45 -9 45 C-9 46.98 -9 48.96 -9 51 C-10.98 51 -12.96 51 -15 51 C-15 47.37 -15 43.74 -15 40 C-16.65 40 -18.3 40 -20 40 C-20 41.65 -20 43.3 -20 45 C-22.31 45 -24.62 45 -27 45 C-27 41.04 -27 37.08 -27 33 C-21.39 33 -15.78 33 -10 33 C-10 31.35 -10 29.7 -10 28 C-20.395 28.495 -20.395 28.495 -31 29 C-31.33 30.32 -31.66 31.64 -32 33 C-33.65 33 -35.3 33 -37 33 C-37 32.34 -37 31.68 -37 31 C-36.01 30.67 -35.02 30.34 -34 30 C-34.33 28.35 -34.66 26.7 -35 25 C-34.01 25 -33.02 25 -32 25 C-32 24.01 -32 23.02 -32 22 C-32.99 21.67 -33.98 21.34 -35 21 C-34.25 18.5625 -34.25 18.5625 -33 16 C-31 15.125 -31 15.125 -29 15 C-28.34 15.33 -27.68 15.66 -27 16 C-27 14.35 -27 12.7 -27 11 C-23.04 11 -19.08 11 -15 11 C-14.67 12.65 -14.34 14.3 -14 16 C-12.02 16 -10.04 16 -8 16 C-8.33 15.67 -8.66 15.34 -9 15 C-9 12.66666667 -9 10.33333333 -9 8 C-9.33 7.34 -9.66 6.68 -10 6 C-9.67 5.34 -9.34 4.68 -9 4 C-8.34 4.33 -7.68 4.66 -7 5 C-6.67 4.67 -6.34 4.34 -6 4 C-5.67 5.32 -5.34 6.64 -5 8 C-1.41672247 9.00217064 -1.41672247 9.00217064 2 8 C1.34 8 0.68 8 0 8 C-0.99 8 -1.98 8 -3 8 C-2.625 5.5625 -2.625 5.5625 -2 3 C-1.34 2.67 -0.68 2.34 0 2 C0 1.34 0 0.68 0 0 Z M-26 17 C-26 18.65 -26 20.3 -26 22 C-22.7 22 -19.4 22 -16 22 C-15.67 20.35 -15.34 18.7 -15 17 C-18.63 17 -22.26 17 -26 17 Z M-9 34 C-9 35.65 -9 37.3 -9 39 C-5.37 39 -1.74 39 2 39 C2 37.35 2 35.7 2 34 C-1.63 34 -5.26 34 -9 34 Z " fill="#C5C0BD" transform="translate(339,188)"/>
<path d="M0 0 C5.61 0 11.22 0 17 0 C17 1.65 17 3.3 17 5 C22.445 5.495 22.445 5.495 28 6 C28 7.65 28 9.3 28 11 C37.57 11 47.14 11 57 11 C57 12.98 57 14.96 57 17 C55.35 17 53.7 17 52 17 C52.020625 17.804375 52.04125 18.60875 52.0625 19.4375 C52 22 52 22 51 23 C49.00041636 23.04080783 46.99954746 23.04254356 45 23 C45 21.02 45 19.04 45 17 C43.35 17 41.7 17 40 17 C40.020625 17.804375 40.04125 18.60875 40.0625 19.4375 C40 22 40 22 39 23 C36.5 23.125 36.5 23.125 34 23 C33 22 33 22 32.9375 19.4375 C32.958125 18.633125 32.97875 17.82875 33 17 C31.68 17 30.36 17 29 17 C29.020625 17.804375 29.04125 18.60875 29.0625 19.4375 C29 22 29 22 28 23 C25.5 23.125 25.5 23.125 23 23 C22 22 22 22 21.90234375 19.49609375 C21.91974609 17.98208984 21.91974609 17.98208984 21.9375 16.4375 C21.94652344 15.42558594 21.95554687 14.41367188 21.96484375 13.37109375 C21.97644531 12.58863281 21.98804688 11.80617187 22 11 C20.35 11 18.7 11 17 11 C17 12.98 17 14.96 17 17 C15.02 17 13.04 17 11 17 C11 13.37 11 9.74 11 6 C9.35 6 7.7 6 6 6 C6 7.65 6 9.3 6 11 C3.69 11 1.38 11 -1 11 C-1.125 3.375 -1.125 3.375 0 0 Z " fill="#F9F8F8" transform="translate(313,222)"/>
<path d="M0 0 C5.94 0 11.88 0 18 0 C18 1.65 18 3.3 18 5 C19.65 5 21.3 5 23 5 C23 3.35 23 1.7 23 0 C25.31 0 27.62 0 30 0 C30 1.65 30 3.3 30 5 C31.65 5 33.3 5 35 5 C35 3.35 35 1.7 35 0 C37.31 0 39.62 0 42 0 C41.67 1.65 41.34 3.3 41 5 C42.98 5 44.96 5 47 5 C47 7.31 47 9.62 47 12 C33.47 12 19.94 12 6 12 C6 10.02 6 8.04 6 6 C4.35 6 2.7 6 1 6 C0 3 0 3 0 0 Z " fill="#FAFAF9" transform="translate(289,250)"/>
<path d="M0 0 C5.62599209 1.12519842 5.62599209 1.12519842 8.078125 4.52734375 C8.59890625 5.23697266 9.1196875 5.94660156 9.65625 6.67773438 C10.1821875 7.42345703 10.708125 8.16917969 11.25 8.9375 C11.79140625 9.67935547 12.3328125 10.42121094 12.890625 11.18554688 C16.76072057 16.52144115 16.76072057 16.52144115 18 19 C18.33 12.73 18.66 6.46 19 0 C20.65 0 22.3 0 24 0 C24 9.57 24 19.14 24 29 C22.35 29 20.7 29 19 29 C16.97265625 26.875 16.97265625 26.875 15.0625 24 C14.38316406 23.00355469 13.70382812 22.00710938 13.00390625 20.98046875 C12.34261719 19.99691406 11.68132812 19.01335937 11 18 C9.84450956 16.42921701 8.67934946 14.86544952 7.5 13.3125 C6.2625 11.6728125 6.2625 11.6728125 5 10 C4.67 16.27 4.34 22.54 4 29 C2.68 29 1.36 29 0 29 C0 19.43 0 9.86 0 0 Z " fill="#FCFCFC" transform="translate(251,288)"/>
<path d="M0 0 C4.32075951 2.31336001 7.17389998 5.45165829 9 10 C9.68891118 14.85442061 9.49799336 18.87951494 7.5 23.375 C3.41577404 27.66343725 -0.64605645 29.66372235 -6.5 30.5 C-11.56389549 29.77658636 -15.84801872 28.32679209 -19.39453125 24.4921875 C-22.37287699 19.96678585 -22.94656437 15.29303343 -22 10 C-17.4085359 0.64047702 -9.87398093 -1.7712362 0 0 Z M-16 8 C-17.89923626 11.05529311 -18 12.88526782 -18 16.5 C-16.69654831 21.06208091 -14.95617421 22.46207692 -11 25 C-7.07497403 26.33617905 -5.3057632 26.09328369 -1.3125 24.875 C2.26561028 22.84965456 3.50307061 21.78635081 5 18 C5.59866575 13.98038714 5.18471519 12.33121345 3.1875 8.75 C1.11320337 5.85457761 1.11320337 5.85457761 -2 4 C-8.03378494 3.40651296 -11.27152377 3.8344376 -16 8 Z " fill="#FCFCFC" transform="translate(302,288)"/>
<path d="M0 0 C3.8053125 -0.12375 3.8053125 -0.12375 7.6875 -0.25 C8.87218872 -0.30462402 8.87218872 -0.30462402 10.08081055 -0.36035156 C13.84197428 -0.41932037 15.65503283 -0.21007908 18.95703125 1.80078125 C21.77271836 4.83181728 22 6.90612953 22 11 C20.65437601 13.94755732 19.91445456 15.54277272 17 17 C18.02022872 19.74676963 19.10505344 22.17374222 20.625 24.6875 C22 27 22 27 22 29 C19.68359375 29.30859375 19.68359375 29.30859375 17 29 C15.41015625 26.84765625 15.41015625 26.84765625 14.0625 24.0625 C11.9012573 19.79464108 11.9012573 19.79464108 7.625 17.875 C6.75875 17.91625 5.8925 17.9575 5 18 C5 21.63 5 25.26 5 29 C3.35 29 1.7 29 0 29 C0 19.43 0 9.86 0 0 Z M5 4 C5 7.3 5 10.6 5 14 C10.43346178 14.36638064 10.43346178 14.36638064 15.5 12.8125 C17.21024303 11.05273873 17.21024303 11.05273873 17.4375 8.4375 C17.293125 7.633125 17.14875 6.82875 17 6 C12.7975546 3.19836974 9.99895065 3.85510288 5 4 Z " fill="#FCFCFC" transform="translate(188,288)"/>
<path d="M0 0 C16.20535714 -0.80357143 16.20535714 -0.80357143 20.375 2.75 C24.40843397 7.02069479 25.4472761 10.99470222 25.32421875 16.75 C24.66120883 21.35112909 21.51652599 25.09504375 18 28 C14.37918537 29.20693821 11.0749281 29.10782079 7.3125 29.0625 C3.6928125 29.0315625 3.6928125 29.0315625 0 29 C0 19.43 0 9.86 0 0 Z M4 4 C4 10.93 4 17.86 4 25 C13.17706376 25.87025643 13.17706376 25.87025643 17.0625 23.125 C20.30561647 19.56803354 20.33412662 16.92585509 20.2890625 12.26171875 C19.86115823 8.91365699 18.44926739 7.23933019 16 5 C12.10402133 3.52565835 12.10402133 3.52565835 4 4 Z " fill="#FCFCFC" transform="translate(317,288)"/>
<path d="M0 0 C5.94 0 11.88 0 18 0 C18 1.32 18 2.64 18 4 C13.71 4 9.42 4 5 4 C5 6.64 5 9.28 5 12 C8.96 12 12.92 12 17 12 C17 13.32 17 14.64 17 16 C13.04 16 9.08 16 5 16 C5 18.97 5 21.94 5 25 C9.29 25 13.58 25 18 25 C18 26.32 18 27.64 18 29 C12.06 29 6.12 29 0 29 C0 19.43 0 9.86 0 0 Z " fill="#FCFCFC" transform="translate(347,288)"/>
<path d="M0 0 C5.94 0 11.88 0 18 0 C18 1.32 18 2.64 18 4 C13.71 4 9.42 4 5 4 C5 6.64 5 9.28 5 12 C8.96 12 12.92 12 17 12 C17 13.32 17 14.64 17 16 C13.04 16 9.08 16 5 16 C5 18.97 5 21.94 5 25 C9.29 25 13.58 25 18 25 C18 26.32 18 27.64 18 29 C12.06 29 6.12 29 0 29 C0 19.43 0 9.86 0 0 Z " fill="#FCFCFC" transform="translate(165,288)"/>
<path d="M0 0 C6.93 0 13.86 0 21 0 C16.62000865 8.21248378 11.92291651 16.10635801 7 24 C13.93 24.495 13.93 24.495 21 25 C21 26.32 21 27.64 21 29 C13.74 29 6.48 29 -1 29 C0.46196595 25.34508511 1.81515892 22.44308901 3.8203125 19.13671875 C4.62275391 17.80737305 4.62275391 17.80737305 5.44140625 16.45117188 C6.27478516 15.0831543 6.27478516 15.0831543 7.125 13.6875 C7.68832031 12.75615234 8.25164062 11.82480469 8.83203125 10.86523438 C10.21803205 8.57480932 11.60857248 6.2871324 13 4 C8.71 4 4.42 4 0 4 C0 2.68 0 1.36 0 0 Z " fill="#FCFCFC" transform="translate(225,288)"/>
<path d="M0 0 C1.65 0 3.3 0 5 0 C7.64 6.6 10.28 13.2 13 20 C15.43174922 15.13650156 17.70618536 10.49599133 19.75 5.5 C20.17796875 4.4584375 20.6059375 3.416875 21.046875 2.34375 C21.36140625 1.5703125 21.6759375 0.796875 22 0 C23.65 0 25.3 0 27 0 C24.88355257 6.64168611 22.4326092 13.10461783 19.8125 19.5625 C19.44447266 20.47580078 19.07644531 21.38910156 18.69726562 22.33007812 C17.80056454 24.55436264 16.90144402 26.77763445 16 29 C14.35 29 12.7 29 11 29 C9.4265274 25.35506745 7.86015756 21.70717419 6.30029297 18.05639648 C5.76870727 16.81500279 5.23519155 15.5744337 4.69970703 14.3347168 C3.93014157 12.55215191 3.1680931 10.76634771 2.40625 8.98046875 C1.94541016 7.90692139 1.48457031 6.83337402 1.00976562 5.72729492 C0 3 0 3 0 0 Z " fill="#FCFCFC" transform="translate(134,288)"/>
<path d="M0 0 C0.99 0.33 1.98 0.66 3 1 C4 4 4 4 3 9 C-0.63 9 -4.26 9 -8 9 C-8 10.65 -8 12.3 -8 14 C-9.98 14 -11.96 14 -14 14 C-14 15.98 -14 17.96 -14 20 C-15.98 20 -17.96 20 -20 20 C-20 18.02 -20 16.04 -20 14 C-18.35 14 -16.7 14 -15 14 C-15 12.02 -15 10.04 -15 8 C-12 7 -12 7 -9 8 C-9 6.02 -9 4.04 -9 2 C-6 2 -3 2 0 2 C0 1.34 0 0.68 0 0 Z " fill="#C5C2BF" transform="translate(150,259)"/>
<path d="M0 0 C0.66 0.33 1.32 0.66 2 1 C2.33 0.67 2.66 0.34 3 0 C4.0730756 3.2192268 3.79946725 3.90206442 3 7 C3.33 7.66 3.66 8.32 4 9 C3.67 9.33 3.34 9.66 3 10 C3.99 11.485 3.99 11.485 5 13 C4.05125 13.5775 3.1025 14.155 2.125 14.75 C-0.76134098 16.82816551 -1.84095741 17.75468075 -3 21 C-3.66 21 -4.32 21 -5 21 C-5.33 21.66 -5.66 22.32 -6 23 C-6 22.01 -6 21.02 -6 20 C-6.99 19.67 -7.98 19.34 -9 19 C-8.34 18.34 -7.68 17.68 -7 17 C-6.3574765 14.93125966 -6.3574765 14.93125966 -6 13 C-6.71027344 13.01160156 -7.42054688 13.02320313 -8.15234375 13.03515625 C-9.07144531 13.04417969 -9.99054688 13.05320313 -10.9375 13.0625 C-11.85402344 13.07410156 -12.77054687 13.08570313 -13.71484375 13.09765625 C-16 13 -16 13 -17 12 C-17 10.35 -17 8.7 -17 7 C-13.37 7 -9.74 7 -6 7 C-5.67 8.65 -5.34 10.3 -5 12 C-3.02 12 -1.04 12 1 12 C0.67 11.67 0.34 11.34 0 11 C0 8.66666667 0 6.33333333 0 4 C-0.33 3.34 -0.66 2.68 -1 2 C-0.67 1.34 -0.34 0.68 0 0 Z " fill="#C9C6C3" transform="translate(330,192)"/>
<path d="M0 0 C1.65 0 3.3 0 5 0 C5 9.57 5 19.14 5 29 C3.35 29 1.7 29 0 29 C0 19.43 0 9.86 0 0 Z " fill="#FDFDFD" transform="translate(215,288)"/>
<path d="M0 0 C3.5625 0.375 3.5625 0.375 5.625 2 C6.5625 4.375 6.5625 4.375 5.8125 7.5625 C4.5625 10.375 4.5625 10.375 3.5625 11.375 C0.1875 11.6875 0.1875 11.6875 -3.4375 11.375 C-5.4375 9.6875 -5.4375 9.6875 -6.4375 7.375 C-6.08950328 2.50304588 -5.06160129 0.55217469 0 0 Z M-2.4375 3.375 C-2.7675 4.365 -3.0975 5.355 -3.4375 6.375 C-3.1075 7.035 -2.7775 7.695 -2.4375 8.375 C-0.7875 8.375 0.8625 8.375 2.5625 8.375 C2.2325 6.725 1.9025 5.075 1.5625 3.375 C0.2425 3.375 -1.0775 3.375 -2.4375 3.375 Z " fill="#FDFDFD" transform="translate(237.4375,323.625)"/>
<path d="M0 0 C6.625 -0.25 6.625 -0.25 10 2 C10.375 5.5 10.375 5.5 10 9 C6.3558226 11.4294516 4.28758728 11.16179575 0 11 C0 7.37 0 3.74 0 0 Z M3 3 C3 4.65 3 6.3 3 8 C4.32 7.67 5.64 7.34 7 7 C6.67 5.68 6.34 4.36 6 3 C5.01 3 4.02 3 3 3 Z " fill="#FDFDFD" transform="translate(192,324)"/>
<path d="M0 0 C2.31 0 4.62 0 7 0 C9.125 4.625 9.125 4.625 8 8 C8.33 8.99 8.66 9.98 9 11 C7.68 11 6.36 11 5 11 C4.67 10.34 4.34 9.68 4 9 C3.67 9.66 3.34 10.32 3 11 C2.01 11 1.02 11 0 11 C0 7.37 0 3.74 0 0 Z M3 3 C3 3.66 3 4.32 3 5 C3.66 5 4.32 5 5 5 C5 4.34 5 3.68 5 3 C4.34 3 3.68 3 3 3 Z " fill="#FCFCFC" transform="translate(248,324)"/>
<path d="M0 0 C0.33 0 0.66 0 1 0 C1 2.97 1 5.94 1 9 C3.46098116 8.94012211 5.91578412 8.85321526 8.375 8.75 C9.07367188 8.73582031 9.77234375 8.72164062 10.4921875 8.70703125 C12.77717646 8.63964218 12.77717646 8.63964218 16 8 C17.56483494 6.08611659 17.56483494 6.08611659 18 4 C20.475 4.495 20.475 4.495 23 5 C23 6.65 23 8.3 23 10 C21.8553125 10.4021875 21.8553125 10.4021875 20.6875 10.8125 C17.99592628 11.80853525 17.99592628 11.80853525 16.375 13.625 C15.92125 14.07875 15.4675 14.5325 15 15 C14.01 15 13.02 15 12 15 C12 13.35 12 11.7 12 10 C8.04 10 4.08 10 0 10 C0 6.7 0 3.4 0 0 Z " fill="#BBB6B4" transform="translate(255,172)"/>
<path d="M0 0 C1.98 0 3.96 0 6 0 C8.24948336 4.2177813 7.9777007 6.3559217 7 11 C5.02 11 3.04 11 1 11 C-1.24948336 6.7822187 -0.9777007 4.6440783 0 0 Z " fill="#FCFCFC" transform="translate(261,324)"/>
<path d="M0 0 C0.53915039 0.16749756 1.07830078 0.33499512 1.63378906 0.50756836 C4.46812612 1.09742162 6.96706086 1.01171659 9.859375 0.87890625 C10.97441406 0.83056641 12.08945312 0.78222656 13.23828125 0.73242188 C14.97658203 0.64831055 14.97658203 0.64831055 16.75 0.5625 C17.92433594 0.51029297 19.09867187 0.45808594 20.30859375 0.40429688 C23.20600664 0.27473776 26.10306493 0.13977553 29 0 C29 0.99 29 1.98 29 3 C19.76 3 10.52 3 1 3 C1 4.65 1 6.3 1 8 C0.34 7.01 -0.32 6.02 -1 5 C-0.67 4.34 -0.34 3.68 0 3 C-2.97 3 -5.94 3 -9 3 C-9 2.67 -9 2.34 -9 2 C-6.03 2 -3.06 2 0 2 C0 1.34 0 0.68 0 0 Z " fill="#C8C5C4" transform="translate(341,225)"/>
<path d="M0 0 C1.32 0 2.64 0 4 0 C5.32 3.63 6.64 7.26 8 11 C6.68 11 5.36 11 4 11 C4 10.34 4 9.68 4 9 C2.68 9 1.36 9 0 9 C0 9.66 0 10.32 0 11 C-1.32 10.67 -2.64 10.34 -4 10 C-2.68 6.7 -1.36 3.4 0 0 Z " fill="#FDFDFD" transform="translate(162,324)"/>
<path d="M0 0 C1.32 0 2.64 0 4 0 C4.50615298 1.26839526 5.00469099 2.53983102 5.5 3.8125 C5.7784375 4.52019531 6.056875 5.22789062 6.34375 5.95703125 C7 8 7 8 7 11 C6.01 11 5.02 11 4 11 C4 10.34 4 9.68 4 9 C2.8553125 9.495 2.8553125 9.495 1.6875 10 C-1 11 -1 11 -4 11 C-3.52269162 9.5410574 -3.04308958 8.08286504 -2.5625 6.625 C-2.29566406 5.81289063 -2.02882812 5.00078125 -1.75390625 4.1640625 C-1 2 -1 2 0 0 Z " fill="#FCFCFC" transform="translate(209,324)"/>
<path d="M0 0 C0.74958984 0.05220703 1.49917969 0.10441406 2.27148438 0.15820312 C4.11887082 0.28763784 5.96574371 0.42436518 7.8125 0.5625 C7.8125 0.8925 7.8125 1.2225 7.8125 1.5625 C4.8425 1.5625 1.8725 1.5625 -1.1875 1.5625 C-1.1875 3.2125 -1.1875 4.8625 -1.1875 6.5625 C-1.5175 5.9025 -1.8475 5.2425 -2.1875 4.5625 C-3.1775 4.5625 -4.1675 4.5625 -5.1875 4.5625 C-5.5175 5.5525 -5.8475 6.5425 -6.1875 7.5625 C-7.8375 7.5625 -9.4875 7.5625 -11.1875 7.5625 C-11.1875 5.2525 -11.1875 2.9425 -11.1875 0.5625 C-7.35939179 -0.71353607 -3.95274893 -0.30033987 0 0 Z " fill="#BBB6B4" transform="translate(255.1875,157.4375)"/>
<path d="M0 0 C0.99 0 1.98 0 3 0 C3.66 1.32 4.32 2.64 5 4 C5.66 2.68 6.32 1.36 7 0 C8.32 0 9.64 0 11 0 C10.52269162 1.4589426 10.04308958 2.91713496 9.5625 4.375 C9.29566406 5.18710937 9.02882812 5.99921875 8.75390625 6.8359375 C8 9 8 9 7 11 C5.68 11 4.36 11 3 11 C2.49384702 9.73160474 1.99530901 8.46016898 1.5 7.1875 C1.2215625 6.47980469 0.943125 5.77210938 0.65625 5.04296875 C0 3 0 3 0 0 Z " fill="#FDFDFD" transform="translate(145,324)"/>
<path d="M0 0 C0.66 0 1.32 0 2 0 C2.33 1.98 2.66 3.96 3 6 C-1.455 6.495 -1.455 6.495 -6 7 C-6.66 8.98 -7.32 10.96 -8 13 C-8.66 12.67 -9.32 12.34 -10 12 C-12.88370333 11.92805131 -15.74239664 11.90708292 -18.625 11.9375 C-19.42679688 11.94201172 -20.22859375 11.94652344 -21.0546875 11.95117188 C-23.03649006 11.96296832 -25.01825433 11.98090395 -27 12 C-27 11.67 -27 11.34 -27 11 C-19.08 10.505 -19.08 10.505 -11 10 C-10.67 8.35 -10.34 6.7 -10 5 C-6.37 5 -2.74 5 1 5 C0.67 3.35 0.34 1.7 0 0 Z " fill="#B8B3B0" transform="translate(203,210)"/>
<path d="M0 0 C3.63 0 7.26 0 11 0 C11.33 1.32 11.66 2.64 12 4 C10.34393633 5.65606367 8.27134998 5.39915554 6 5.625 C5.0925 5.72039062 4.185 5.81578125 3.25 5.9140625 C2.13625 5.95660156 2.13625 5.95660156 1 6 C0.67 5.67 0.34 5.34 0 5 C0 3.35 0 1.7 0 0 Z " fill="#FAF9F7" transform="translate(313,199)"/>
<path d="M0 0 C2.97 0.33 5.94 0.66 9 1 C7.68 2.32 6.36 3.64 5 5 C5.33 5.66 5.66 6.32 6 7 C5.01 7 4.02 7 3 7 C3.99 7.66 4.98 8.32 6 9 C5 10 5 10 2.4375 10.0625 C1.633125 10.041875 0.82875 10.02125 0 10 C0 8.35 0 6.7 0 5 C-1.65 5 -3.3 5 -5 5 C-5 4.01 -5 3.02 -5 2 C-3.68 2 -2.36 2 -1 2 C-0.67 1.34 -0.34 0.68 0 0 Z " fill="#CCC8C5" transform="translate(135,229)"/>
<path d="M0 0 C1.32 0.33 2.64 0.66 4 1 C4 3.31 4 5.62 4 8 C5.32 8 6.64 8 8 8 C8 8.99 8 9.98 8 11 C5.36 11 2.72 11 0 11 C0 7.37 0 3.74 0 0 Z " fill="#FCFCFC" transform="translate(173,324)"/>
<path d="M0 0 C2.97 0 5.94 0 9 0 C9 0.99 9 1.98 9 3 C8.01 3 7.02 3 6 3 C6 5.64 6 8.28 6 11 C5.01 11 4.02 11 3 11 C3 8.36 3 5.72 3 3 C2.01 3 1.02 3 0 3 C0 2.01 0 1.02 0 0 Z " fill="#FDFDFD" transform="translate(219,324)"/>
<path d="M0 0 C0.66 0 1.32 0 2 0 C1.67 3.96 1.34 7.92 1 12 C-0.98 12 -2.96 12 -5 12 C-5 10.02 -5 8.04 -5 6 C-3.35 6 -1.7 6 0 6 C0 4.02 0 2.04 0 0 Z " fill="#D7D6D3" transform="translate(135,267)"/>
<path d="M0 0 C0.99 0.33 1.98 0.66 3 1 C3.33 4.3 3.66 7.6 4 11 C0.7 11 -2.6 11 -6 11 C-6 10.67 -6 10.34 -6 10 C-4.02 9.67 -2.04 9.34 0 9 C-0.33 7.68 -0.66 6.36 -1 5 C-1.66 5 -2.32 5 -3 5 C-2.67 3.68 -2.34 2.36 -2 1 C-1.67 1.33 -1.34 1.66 -1 2 C-0.67 1.34 -0.34 0.68 0 0 Z " fill="#CBC5C3" transform="translate(172,239)"/>
<path d="M0 0 C-0.5234375 1.953125 -0.5234375 1.953125 -2 4 C-4.66482841 4.46709352 -6.95070966 4.69572473 -9.625 4.75 C-10.68460937 4.79447266 -10.68460937 4.79447266 -11.765625 4.83984375 C-13.50980047 4.91055357 -15.25490827 4.95754035 -17 5 C-17 4.34 -17 3.68 -17 3 C-16.05125 2.855625 -15.1025 2.71125 -14.125 2.5625 C-11.1065506 2.17064601 -11.1065506 2.17064601 -9 1 C-9 0.34 -9 -0.32 -9 -1 C-5.22102349 -2.0497157 -3.35080929 -2.10976881 0 0 Z " fill="#BFB9B6" transform="translate(323,212)"/>
<path d="M0 0 C5.28 0 10.56 0 16 0 C16 0.66 16 1.32 16 2 C12.37 2 8.74 2 5 2 C5 3.65 5 5.3 5 7 C3.35 7 1.7 7 0 7 C0 4.69 0 2.38 0 0 Z " fill="#CCC9C7" transform="translate(137,266)"/>
<path d="M0 0 C3.3 0.33 6.6 0.66 10 1 C10 2.98 10 4.96 10 7 C10.99 6.67 11.98 6.34 13 6 C15.6875 6.4375 15.6875 6.4375 18 7 C18 7.33 18 7.66 18 8 C11.375 9 11.375 9 8 9 C6.66018514 9.3062434 5.32488113 9.63451555 4 10 C4.33 9.01 4.66 8.02 5 7 C5.99 7 6.98 7 8 7 C8.33 5.35 8.66 3.7 9 2 C7.88625 2.2784375 7.88625 2.2784375 6.75 2.5625 C4.05009037 2.99203108 2.55368923 2.85122974 0 2 C0 1.34 0 0.68 0 0 Z " fill="#B5B1AF" transform="translate(269,163)"/>
<path d="M0 0 C1.4540625 0.0309375 1.4540625 0.0309375 2.9375 0.0625 C2.9375 2.3725 2.9375 4.6825 2.9375 7.0625 C0.9575 7.0625 -1.0225 7.0625 -3.0625 7.0625 C-3.3925 8.3825 -3.7225 9.7025 -4.0625 11.0625 C-4.0625 9.7425 -4.0625 8.4225 -4.0625 7.0625 C-7.28654978 8.73204819 -7.28654978 8.73204819 -7.75 11.6875 C-7.853125 12.47125 -7.95625 13.255 -8.0625 14.0625 C-8.3925 14.0625 -8.7225 14.0625 -9.0625 14.0625 C-9.44313221 11.7364143 -9.77519945 9.40194736 -10.0625 7.0625 C-9.0625 6.0625 -9.0625 6.0625 -6.5 6 C-5.2934375 6.0309375 -5.2934375 6.0309375 -4.0625 6.0625 C-4.083125 5.258125 -4.10375 4.45375 -4.125 3.625 C-4.03366838 -0.11959638 -3.80090148 0.07756942 0 0 Z M-2.0625 1.0625 C-2.3925 2.3825 -2.7225 3.7025 -3.0625 5.0625 C-0.5875 5.5575 -0.5875 5.5575 1.9375 6.0625 C1.9375 4.4125 1.9375 2.7625 1.9375 1.0625 C0.6175 1.0625 -0.7025 1.0625 -2.0625 1.0625 Z " fill="#B2ACA9" transform="translate(276.0625,214.9375)"/>
<path d="M0 0 C1.32 0 2.64 0 4 0 C4 1.98 4 3.96 4 6 C1.625 7.0625 1.625 7.0625 -1 8 C-1.66 7.67 -2.32 7.34 -3 7 C-3 8.32 -3 9.64 -3 11 C-4.32 11.33 -5.64 11.66 -7 12 C-7.33 10.68 -7.66 9.36 -8 8 C-6.02 8.99 -6.02 8.99 -4 10 C-4.185625 9.21625 -4.37125 8.4325 -4.5625 7.625 C-5 5 -5 5 -4 3 C-3.34 3.33 -2.68 3.66 -2 4 C-2.33 4.66 -2.66 5.32 -3 6 C-2.34 6 -1.68 6 -1 6 C-1 5.34 -1 4.68 -1 4 C0.32 3.67 1.64 3.34 3 3 C2.01 2.67 1.02 2.34 0 2 C0 1.34 0 0.68 0 0 Z " fill="#CFCBC9" transform="translate(149,233)"/>
<path d="M0 0 C0.33 0 0.66 0 1 0 C1 1.65 1 3.3 1 5 C1.99 4.67 2.98 4.34 4 4 C4.66 4.66 5.32 5.32 6 6 C4.35 6 2.7 6 1 6 C1.33 13.59 1.66 21.18 2 29 C1.34 29 0.68 29 0 29 C-0.33 21.74 -0.66 14.48 -1 7 C-1.66 7 -2.32 7 -3 7 C-3 6.34 -3 5.68 -3 5 C-2.34 4.67 -1.68 4.34 -1 4 C-0.34786708 1.97536745 -0.34786708 1.97536745 0 0 Z " fill="#B0ACA8" transform="translate(261,210)"/>
<path d="M0 0 C0.66 0 1.32 0 2 0 C2.33 1.65 2.66 3.3 3 5 C6.63 5 10.26 5 14 5 C14 5.33 14 5.66 14 6 C13.10796875 6.04898438 12.2159375 6.09796875 11.296875 6.1484375 C10.12640625 6.22320312 8.9559375 6.29796875 7.75 6.375 C6.00976562 6.47941406 6.00976562 6.47941406 4.234375 6.5859375 C1.29305666 6.96248308 -0.49949011 7.4774123 -3 9 C-2.625 6.0625 -2.625 6.0625 -2 3 C-1.34 2.67 -0.68 2.34 0 2 C0 1.34 0 0.68 0 0 Z " fill="#CCC7C4" transform="translate(339,188)"/>
<path d="M0 0 C1.65 0 3.3 0 5 0 C4.01 0.495 4.01 0.495 3 1 C3.33 2.32 3.66 3.64 4 5 C-2 9 -2 9 -4 9 C-4.33 7.68 -4.66 6.36 -5 5 C-3.68 4.67 -2.36 4.34 -1 4 C-0.67 2.68 -0.34 1.36 0 0 Z " fill="#C9C5C3" transform="translate(210,205)"/>
<path d="M0 0 C0.99 0 1.98 0 3 0 C3 3.63 3 7.26 3 11 C2.01 11 1.02 11 0 11 C0 7.37 0 3.74 0 0 Z " fill="#FDFDFD" transform="translate(184,324)"/>
<path d="M0 0 C0.33 0.66 0.66 1.32 1 2 C3.02463255 2.65213292 3.02463255 2.65213292 5 3 C3.68 3 2.36 3 1 3 C3.475 3.99 3.475 3.99 6 5 C6 5.33 6 5.66 6 6 C4.35 6 2.7 6 1 6 C1 7.65 1 9.3 1 11 C0.67 11 0.34 11 0 11 C-0.66 7.7 -1.32 4.4 -2 1 C-1.34 0.67 -0.68 0.34 0 0 Z " fill="#BDBAB7" transform="translate(301,216)"/>
<path d="M0 0 C3.96 0 7.92 0 12 0 C11.01 0.33 10.02 0.66 9 1 C8.67 1.66 8.34 2.32 8 3 C8 2.34 8 1.68 8 1 C4.26360784 2.24546405 3.81243487 3.63404953 2 7 C1.67 6.01 1.34 5.02 1 4 C0.67 3.67 0.34 3.34 0 3 C0 2.01 0 1.02 0 0 Z " fill="#CDC8C6" transform="translate(164,233)"/>
<path d="M0 0 C2.64 0 5.28 0 8 0 C8 1.98 8 3.96 8 6 C7.01 6 6.02 6 5 6 C5 5.01 5 4.02 5 3 C2.525 2.01 2.525 2.01 0 1 C0 0.67 0 0.34 0 0 Z " fill="#CEC9C6" transform="translate(356,198)"/>
<path d="M0 0 C4.21878192 -0.19622241 7.17010894 0.19769832 11 2 C10.67 2.99 10.34 3.98 10 5 C9.01 5.33 8.02 5.66 7 6 C6.34 4.68 5.68 3.36 5 2 C3.35 2 1.7 2 0 2 C0 1.34 0 0.68 0 0 Z " fill="#CBC5C3" transform="translate(250,210)"/>
<path d="M0 0 C1.32 0.66 2.64 1.32 4 2 C3.01 2.33 2.02 2.66 1 3 C1 4.65 1 6.3 1 8 C0.34 7.01 -0.32 6.02 -1 5 C-0.67 4.34 -0.34 3.68 0 3 C-2.97 3 -5.94 3 -9 3 C-9 2.67 -9 2.34 -9 2 C-6.03 2 -3.06 2 0 2 C0 1.34 0 0.68 0 0 Z " fill="#DEDADA" transform="translate(341,225)"/>
<path d="M0 0 C0.66 0.33 1.32 0.66 2 1 C1.67 4.63 1.34 8.26 1 12 C0.01 12 -0.98 12 -2 12 C-1.34 8.04 -0.68 4.08 0 0 Z " fill="#B5B2AF" transform="translate(295,227)"/>
<path d="M0 0 C-0.61875 0.4125 -1.2375 0.825 -1.875 1.25 C-4.06768281 3.05573879 -4.92788417 4.4090534 -6 7 C-6 6.34 -6 5.68 -6 5 C-6.66 5 -7.32 5 -8 5 C-8.33 3.68 -8.66 2.36 -9 1 C-5.92677456 0.08941469 -3.19902639 -0.08886184 0 0 Z " fill="#CFCBC8" transform="translate(215,232)"/>
<path d="M0 0 C1.2065625 0.0309375 1.2065625 0.0309375 2.4375 0.0625 C2.25 1.9375 2.25 1.9375 1.4375 4.0625 C-1.125 5.3125 -1.125 5.3125 -3.5625 6.0625 C-3.605221 4.39638095 -3.60313832 2.72867115 -3.5625 1.0625 C-2.5625 0.0625 -2.5625 0.0625 0 0 Z " fill="#CBC7C7" transform="translate(253.5625,187.9375)"/>
<path d="M0 0 C0.66 0 1.32 0 2 0 C1.67 1.98 1.34 3.96 1 6 C0.01 6 -0.98 6 -2 6 C-1.34 4.02 -0.68 2.04 0 0 Z " fill="#BFBCB8" transform="translate(266,233)"/>
<path d="M0 0 C2 1 2 1 2 1 Z " fill="#AAAAAA" transform="translate(321,208)"/>
<path d="M0 0 C2 1 2 1 2 1 Z " fill="#9F8080" transform="translate(251,208)"/>
<path d="" fill="#FFFFFF" transform="translate(0,0)"/>
</svg>
